<svg width="14" height="15" viewBox="0 0 14 15" fill="none" xmlns="http://www.w3.org/2000/svg">
<mask id="mask0" style="mask-type:alpha" maskUnits="userSpaceOnUse" x="0" y="0" width="14" height="15">
<rect y="0.0203857" width="14" height="14" fill="#C4C4C4"/>
</mask>
<g mask="url(#mask0)">
<path d="M5.23103 5.55436H5.73103V5.05436V3.4658C5.73103 2.53339 6.0387 1.80878 6.54534 1.31694C7.0534 0.823704 7.80722 0.520464 8.77954 0.520386C8.77966 0.520386 8.77979 0.520386 8.77991 0.520386L10.5 0.522998V2.23151L9.40582 2.23188C9.40577 2.23188 9.40571 2.23188 9.40565 2.23188C8.92687 2.2319 8.47922 2.31422 8.17899 2.63596C7.88434 2.95173 7.85165 3.37534 7.85165 3.70772V5.05436V5.55436H8.35165H10.41L10.4093 7.42709H8.35165H7.85165V7.92709V13.5204H5.73103V7.92709V7.42709H5.23103H3.5V5.55436H5.23103ZM10.6984 2.23144H10.6983H10.6984Z" stroke="#FFFCFE"/>
</g>
</svg>
