<svg width="14" height="15" viewBox="0 0 14 15" fill="none" xmlns="http://www.w3.org/2000/svg">
<mask id="mask0" mask-type="alpha" maskUnits="userSpaceOnUse" x="0" y="0" width="14" height="15">
<rect y="0.0203857" width="14" height="14" fill="#C4C4C4"/>
</mask>
<g mask="url(#mask0)">
</g>
<g clip-path="url(#clip0)">
<path fill-rule="evenodd" clip-rule="evenodd" d="M4.12449 0.0203857H10.0285C12.0336 0.0203857 13.6649 1.75359 13.6648 3.88388V10.1569C13.6648 12.2872 12.0336 14.0204 10.0285 14.0204H4.12449C2.11952 14.0204 0.488342 12.2873 0.488342 10.1569V3.88388C0.488342 1.75359 2.11952 0.0203857 4.12449 0.0203857ZM10.0287 12.7781C11.3891 12.7781 12.4959 11.6023 12.4959 10.1568L12.4958 3.88383C12.4958 2.43846 11.389 1.26247 10.0286 1.26247H4.12456C2.76422 1.26247 1.65749 2.43846 1.65749 3.88383V10.1568C1.65749 11.6023 2.76422 12.7782 4.12456 12.7781H10.0287Z" fill="white"/>
<path fill-rule="evenodd" clip-rule="evenodd" d="M3.68182 7.0206C3.68182 5.03142 5.20488 3.41315 7.07703 3.41315C8.94915 3.41315 10.4722 5.03142 10.4722 7.0206C10.4722 9.0097 8.94915 10.6278 7.07703 10.6278C5.20488 10.6278 3.68182 9.0097 3.68182 7.0206ZM4.85026 7.0204C4.85026 8.32457 5.84897 9.38551 7.07643 9.38551C8.30392 9.38551 9.30261 8.32457 9.30261 7.0204C9.30261 5.71614 8.304 4.6551 7.07643 4.6551C5.84889 4.6551 4.85026 5.71614 4.85026 7.0204Z" fill="white"/>
<path fill-rule="evenodd" clip-rule="evenodd" d="M10.6141 2.35977C10.3889 2.35977 10.1676 2.45666 10.0086 2.62642C9.84874 2.79536 9.75684 3.03054 9.75684 3.27068C9.75684 3.51009 9.84882 3.74519 10.0086 3.91494C10.1675 4.08388 10.3889 4.18159 10.6141 4.18159C10.8402 4.18159 11.0607 4.08388 11.2205 3.91494C11.3803 3.74519 11.4715 3.51 11.4715 3.27068C11.4715 3.03054 11.3803 2.79536 11.2205 2.62642C11.0616 2.45666 10.8402 2.35977 10.6141 2.35977Z" fill="white"/>
</g>
<defs>
<clipPath id="clip0">
<rect width="14" height="14" fill="white" transform="translate(0 0.0203857)"/>
</clipPath>
</defs>
</svg>
