<svg width="56" height="36" viewBox="0 0 56 36" fill="none" xmlns="http://www.w3.org/2000/svg">
<path fill-rule="evenodd" clip-rule="evenodd" d="M47.3497 29.4613L46.5019 30.6954V26.7467H45.4005V35.8214H46.5019V32.4481L47.3497 31.2303V35.8214H48.4526V26.7467H47.3497V29.4613Z" fill="#FF3EA6"/>
<path fill-rule="evenodd" clip-rule="evenodd" d="M38.8539 31.341H38.0084C38.0084 31.341 38.0084 28.4891 38.0084 28.4811C38.0084 28.1455 38.0831 27.8538 38.4537 27.8538H38.8558L38.8539 31.341ZM39.6247 26.7471H38.4565C37.5515 26.7471 36.9752 27.4151 36.9154 28.5339C36.9093 28.6263 36.9065 28.7108 36.9065 28.7915V35.8224L38.0084 35.821V32.4481H38.8539V35.8196L39.9576 35.821V27.0818C39.9576 26.897 39.8086 26.7471 39.6247 26.7471Z" fill="#FF3EA6"/>
<path fill-rule="evenodd" clip-rule="evenodd" d="M51.3528 34.2055C51.3417 34.4146 51.2669 34.7633 50.8969 34.7633C50.5259 34.7633 50.4516 34.4132 50.4404 34.206C50.4391 34.1248 50.4367 28.4415 50.4386 28.3612C50.4497 28.1526 50.524 27.8015 50.8946 27.8015C51.2656 27.8015 51.3399 28.1526 51.351 28.3598C51.3538 28.4541 51.3556 34.0538 51.3528 34.2055ZM50.8973 26.6762C49.9924 26.6762 49.4161 27.3446 49.3562 28.463C49.3502 28.5554 49.3474 28.6394 49.3474 28.7206V33.8466L49.3483 33.8704L49.3474 33.9082C49.3474 35.1488 49.9255 35.8891 50.8941 35.8891C51.7991 35.8891 52.3753 35.2207 52.4352 34.1024C52.4412 34.0109 52.444 33.9269 52.444 33.8447V28.7187L52.4431 28.695L52.444 28.6571C52.444 27.4165 51.866 26.6762 50.8973 26.6762Z" fill="#FF3EA6"/>
<path fill-rule="evenodd" clip-rule="evenodd" d="M34.2719 27.8477H35.1109V29.003C35.1109 29.4581 34.9577 29.9057 34.679 30.2632L34.2719 30.7832V27.8477ZM33.17 27.0813L33.1709 35.8209H34.2719V32.4355L35.5437 30.8009C35.9751 30.2469 36.2128 29.5547 36.2128 28.8513V26.7467H33.5034C33.319 26.7467 33.17 26.8965 33.17 27.0813Z" fill="#FF3EA6"/>
<path fill-rule="evenodd" clip-rule="evenodd" d="M43.1611 34.7068H42.0746C42.206 33.5338 42.311 32.521 42.311 31.1543V28.4816L42.3123 28.4811C42.3123 28.1455 42.3871 27.8538 42.7576 27.8538H43.1598L43.1611 27.8543V34.7068ZM44.2625 34.7068V27.5962H44.2616V27.0818C44.2616 26.897 44.1125 26.7471 43.9282 26.7471H42.7604C41.8554 26.7471 41.2792 27.4151 41.2193 28.5339C41.2132 28.6263 41.2104 28.7103 41.2104 28.7911L41.2091 28.7915V31.1543C41.2091 32.3441 41.0085 34.3399 40.9708 34.7068H40.4499V35.821H44.8425L44.8416 34.7068H44.2625Z" fill="#FF3EA6"/>
<path fill-rule="evenodd" clip-rule="evenodd" d="M21.082 33.9129H21.0853V32.3847L21.5361 31.8054C21.6471 31.8997 21.929 32.1854 21.929 32.654V35.7706H23.0308V32.5733C23.0308 31.9464 22.7517 31.3555 22.2651 30.9508L22.2262 30.9186L22.3575 30.7501C22.7889 30.1965 23.0262 29.5043 23.0262 28.8009V26.6958H21.9248V28.9526C21.9248 29.4077 21.7711 29.8553 21.4925 30.2129L21.0853 30.7328V26.6958H19.9839V35.7706H21.0806L21.082 33.9129Z" fill="#FF3EA6"/>
<path fill-rule="evenodd" clip-rule="evenodd" d="M30.4821 27.8034V26.6958H28.2292C28.0448 26.6958 27.8958 26.8456 27.8958 27.0309V35.4355C27.8958 35.6208 28.0448 35.7706 28.2292 35.7706H30.4821V34.663H28.9977V30.6731H30.4166V29.5659H28.9967V27.8034H30.4821Z" fill="#FF3EA6"/>
<path fill-rule="evenodd" clip-rule="evenodd" d="M13.6751 35.8449C14.1533 35.8449 14.5429 35.66 14.8327 35.296C15.1098 34.9464 15.251 34.4712 15.251 33.884V32.8753H14.1627V33.9097C14.1627 34.1921 14.1153 34.4031 14.0224 34.5361C13.9328 34.663 13.8195 34.7247 13.6751 34.7247C13.5223 34.7247 13.4118 34.6691 13.3278 34.5487C13.2391 34.4222 13.1978 34.2271 13.1978 33.9349V28.506C13.1978 28.2143 13.2391 28.0191 13.3273 27.8927C13.4118 27.7727 13.5223 27.7167 13.6751 27.7167C13.8195 27.7167 13.9333 27.7788 14.0224 27.9057C14.1153 28.0387 14.1627 28.2493 14.1627 28.5321V29.566H15.251V28.5578C15.251 27.9702 15.1098 27.495 14.8327 27.1458C14.5429 26.7813 14.1538 26.5965 13.6751 26.5965C13.1964 26.5965 12.8068 26.7813 12.5171 27.1458C12.2398 27.4945 12.0992 27.9697 12.0992 28.5578V33.884C12.0992 34.4717 12.2398 34.9468 12.5171 35.296C12.8068 35.66 13.1964 35.8449 13.6751 35.8449Z" fill="#FF3EA6"/>
<path fill-rule="evenodd" clip-rule="evenodd" d="M10.1689 34.5878C10.1689 34.6625 10.1085 34.7232 10.0342 34.7232H9.33124C9.25649 34.7232 9.19612 34.6625 9.19612 34.5878V34.0627C9.19612 33.988 9.25649 33.9273 9.33124 33.9273H10.1689V34.5878ZM10.1025 26.6958V30.7328L9.69481 30.2129C9.41667 29.8553 9.26302 29.4077 9.26302 28.9526V26.6958H8.16115V28.8009C8.16115 29.5043 8.39887 30.1965 8.83027 30.7501L10.1689 32.4565V32.8753H9.12927C8.59482 32.8753 8.16115 33.3108 8.16115 33.8485V34.7974C8.16115 35.3346 8.59482 35.7706 9.12927 35.7706H10.2357C10.7707 35.7706 11.2039 35.3346 11.2039 34.7974V33.8059C11.2039 33.8009 11.2035 33.7962 11.2035 33.7915L11.2039 26.6958H10.1025Z" fill="#FF3EA6"/>
<path fill-rule="evenodd" clip-rule="evenodd" d="M5.51841 27.7969H6.35746V28.9526C6.35746 29.4077 6.20423 29.8553 5.92563 30.2129L5.51841 30.7328V27.7969ZM4.41655 27.0309L4.41748 35.7706H5.51841V32.3847L6.79022 30.7501C7.22156 30.1965 7.45934 29.5043 7.45934 28.8009V26.6958H4.74994C4.5656 26.6958 4.41655 26.8456 4.41655 27.0309Z" fill="#FF3EA6"/>
<mask id="mask0" mask-type="alpha" maskUnits="userSpaceOnUse" x="15" y="26" width="13" height="10">
<path d="M15.9842 26.5965H27.0005V35.9411H15.9842V26.5965Z" fill="#FF3EA6"/>
</mask>
<g mask="url(#mask0)">
<path fill-rule="evenodd" clip-rule="evenodd" d="M18.7172 35.296C18.9949 34.9464 19.1356 34.4717 19.1356 33.884V32.8753H18.0477V33.9097C18.0477 34.1921 18.0003 34.4031 17.907 34.5361C17.8178 34.663 17.7045 34.7247 17.5597 34.7247C17.4069 34.7247 17.2969 34.6691 17.2128 34.5487C17.1241 34.4222 17.0828 34.2271 17.0828 33.9349V28.506C17.0828 28.2143 17.1241 28.0191 17.2123 27.8927C17.2969 27.7727 17.4074 27.7167 17.5597 27.7167C17.7045 27.7167 17.8183 27.7788 17.907 27.9057C18.0003 28.0387 18.0477 28.2493 18.0477 28.5321V29.566H19.1356V28.5578C19.1356 27.9702 18.9949 27.495 18.7172 27.1458C18.428 26.7813 18.0384 26.5965 17.5597 26.5965C17.0814 26.5965 16.6919 26.7813 16.4021 27.1458C16.1249 27.4945 15.9842 27.9697 15.9842 28.5578V33.884C15.9842 34.4717 16.1249 34.9468 16.4021 35.296C16.6919 35.66 17.0814 35.8449 17.5597 35.8449C18.0379 35.8449 18.4275 35.66 18.7172 35.296Z" fill="#FF3EA6"/>
<path fill-rule="evenodd" clip-rule="evenodd" d="M25.8992 34.2667C25.8875 34.4787 25.8114 34.8324 25.4362 34.8324C25.0601 34.8324 24.9849 34.4773 24.9733 34.2677C24.9719 34.1837 24.9695 28.3855 24.971 28.3043C24.9826 28.0924 25.0578 27.7367 25.4339 27.7367C25.81 27.7367 25.8857 28.0924 25.8968 28.3029C25.8996 28.3977 25.9014 34.1113 25.8992 34.2667ZM25.4371 26.6007C24.5219 26.6007 23.9392 27.2761 23.8789 28.4075C23.8728 28.5004 23.87 28.5858 23.87 28.6679V33.9036L23.871 33.9274L23.87 33.9662C23.87 35.2203 24.4541 35.969 25.4334 35.969C26.3486 35.969 26.9309 35.2932 26.9917 34.1622C26.9973 34.0702 27.0005 33.9848 27.0005 33.9017L27.0001 28.6661L26.9996 28.6418L27.0005 28.6035C27.0005 27.3493 26.4159 26.6007 25.4371 26.6007Z" fill="#FF3EA6"/>
</g>
<mask id="mask1" mask-type="alpha" maskUnits="userSpaceOnUse" x="0" y="0" width="56" height="26">
<path d="M0 0H56V25.3606H0V0Z" fill="#FF3EA6"/>
</mask>
<g mask="url(#mask1)">
<path fill-rule="evenodd" clip-rule="evenodd" d="M20.655 1.63227C20.4753 1.48524 20.2325 1.51417 20.037 1.70881C19.9488 1.79657 19.8847 1.90486 19.8471 2.02995C19.7904 2.21852 19.8053 2.38842 19.8786 2.54338C19.4524 2.92379 19.0304 3.30047 18.6032 3.68135C18.3821 2.83698 18.1643 2.00334 17.9456 1.16737C17.9647 1.15337 17.9795 1.1417 17.9949 1.13049C18.3473 0.875178 18.4109 0.300128 18.1073 0.0830836C18.0464 0.0396747 17.9684 0.0266054 17.8983 0C17.8899 0 17.8816 0 17.8732 0C17.7957 0.0266054 17.714 0.0396747 17.6411 0.0830836C17.2715 0.301994 17.1726 0.877978 17.4567 1.13423C17.4674 1.14403 17.4776 1.15384 17.4915 1.1669C17.0328 2.00427 16.575 2.83884 16.1129 3.68135C15.7949 3.30047 15.4819 2.92473 15.1782 2.56066C15.2293 2.43743 15.2896 2.32681 15.3194 2.21058C15.3797 1.97533 15.3291 1.78256 15.1917 1.6486C15.0552 1.51604 14.8871 1.5011 14.7009 1.60146C14.5403 1.68874 14.4307 1.83624 14.3675 2.03368C14.3638 2.04581 14.3573 2.05702 14.3517 2.06869C14.3443 2.1205 14.3369 2.17231 14.3294 2.22412C14.3308 2.24139 14.3331 2.25866 14.3341 2.27593C14.3485 2.52518 14.452 2.68481 14.6452 2.74502C14.7083 2.76463 14.7803 2.75763 14.8513 2.76323C14.8523 2.77303 14.8536 2.7847 14.8541 2.7973C14.8755 3.56699 14.8973 4.33715 14.9173 5.10777C14.8926 5.28047 14.8662 5.44897 14.8463 5.617C14.8407 5.66135 14.8504 5.70756 14.8615 5.74864C14.9126 5.93955 15.0375 6.0072 15.2042 6.0072C16.3484 6.00629 17.4925 6.00675 18.6361 6.00675C18.7141 6.00675 18.7917 6.00863 18.8702 6.00629C19.0791 6.00069 19.2648 5.84572 19.3145 5.617C19.3507 5.45037 19.3656 5.2814 19.3902 5.10777C19.5843 4.48464 19.7807 3.86199 19.9766 3.23932C20.0272 3.07829 20.0783 2.91726 20.1285 2.75809C20.4693 2.74689 20.6657 2.60686 20.7772 2.3002C20.8672 2.05188 20.8143 1.76342 20.655 1.63227Z" fill="#FF3EA6"/>
<path fill-rule="evenodd" clip-rule="evenodd" d="M25.7748 20.9272C25.5371 21.5485 24.0489 22.522 23.5163 22.6318C22.8733 22.7638 22.2999 22.1024 22.35 21.6203C22.3765 21.3655 22.4373 21.1176 22.532 20.8763L26.644 6.8269H22.2785L17.0011 18.663C16.8859 18.8805 16.3436 20.1627 15.734 19.7543C15.4284 19.5499 15.7149 18.6378 15.8068 18.1137C16.6301 14.2743 18.8147 6.92399 18.8175 6.8269H14.6289C13.8335 9.16852 12.773 11.4388 11.7845 13.7015C10.8633 15.8098 10.0489 17.9793 8.87418 19.9643C8.369 20.818 5.73631 24.4446 4.37308 23.2166C3.87394 22.7671 4.58713 22.5991 4.85411 22.2056C5.22231 21.6633 5.19724 20.7438 4.98273 20.1972C4.61916 19.2721 3.59117 18.8236 2.63236 18.8945C0.571257 19.0462 -0.371305 21.3725 0.384602 23.1456C1.02489 24.6476 2.79255 25.4228 4.35311 25.3571C9.4225 25.1419 12.7307 17.8948 14.3958 13.4971C14.4065 13.8033 13.5303 17.6829 13.2095 19.47C12.9954 20.6625 12.3895 22.9496 13.3776 23.9662C14.3777 24.9958 15.883 23.9246 16.6422 23.1279C17.7454 21.9699 20.8856 15.2068 22.0384 13.2712C22.0686 13.2208 19.4225 21.8359 19.4346 22.9267C19.4443 23.8196 20.3702 24.4054 21.1915 24.39C23.1449 24.3526 24.7352 23.0621 26.3594 22.1244C26.2163 22.2341 26.0409 22.3004 25.8616 22.3125C25.8695 22.3125 25.734 21.0929 25.7748 20.9272Z" fill="#FF3EA6"/>
<path fill-rule="evenodd" clip-rule="evenodd" d="M37.0251 21.4338C36.5817 22.1811 36.0166 22.5559 35.3285 22.5559C34.6794 22.5559 34.3715 22.315 34.405 21.8325C34.4226 21.5776 34.4746 21.3297 34.561 21.0885L36.7651 13.8955H33.3449L31.2611 20.6856C30.7415 21.9328 30.0645 22.5559 29.2297 22.5559C28.758 22.5559 28.5425 22.2665 28.5829 21.6877C28.595 21.509 28.6321 21.3092 28.6939 21.0885L30.8984 13.8955H27.4778L25.5022 20.3337C25.3643 21.2569 25.0114 22.0574 25.0769 22.9913C25.0987 22.9666 25.1251 22.9433 25.146 22.9181C25.225 23.3816 25.4116 23.7442 25.7088 24.0028C26.1754 24.4023 26.7646 24.6021 27.476 24.6021C28.8903 24.6021 30.1077 23.9337 31.1283 22.5974C31.1901 23.9337 31.9283 24.6021 33.3431 24.6021C34.8521 24.6021 36.1229 23.9701 37.1565 22.7095C37.3023 22.5797 37.625 22.2679 37.6315 22.288C37.5971 21.5598 37.6552 21.6901 37.5303 20.9848C37.4973 21.207 37.3121 21.1697 37.0251 21.4338Z" fill="#FF3EA6"/>
<path fill-rule="evenodd" clip-rule="evenodd" d="M54.7427 14.2361C54.3676 13.8673 53.6275 13.683 52.5219 13.683C51.857 13.683 51.2051 13.8141 50.5653 14.076C49.3256 14.5717 48.3287 15.3885 47.5737 16.525C46.5968 18.0018 46.06 19.5313 45.9583 21.1131C45.4095 21.5947 44.8877 21.9766 44.3936 22.2552C43.7524 22.617 42.9756 22.798 42.0637 22.798C40.9739 22.798 40.4552 22.2883 40.5082 21.2685C40.537 20.7173 40.602 20.2109 40.7037 19.7492C41.0542 18.2132 41.6161 16.9278 42.3887 15.8945C42.9291 15.1645 43.4255 14.7994 43.8777 14.7994C44.33 14.7994 44.5408 15.0884 44.5106 15.6671C44.5018 15.8398 44.4712 16.0088 44.4307 16.1763C44.3722 16.4181 44.1721 16.6422 44.2947 16.9012C44.3774 17.0762 44.5835 17.1593 44.7762 17.1691C45.1992 17.1911 45.5818 17.0865 45.8901 16.7887C46.1506 16.5371 46.295 16.1427 46.3228 15.6055C46.3897 14.3239 45.4722 13.683 43.5708 13.683C42.9059 13.683 42.2536 13.8141 41.6137 14.076C40.3745 14.5717 39.3771 15.3885 38.6221 16.525C37.7622 17.8249 37.2431 19.1658 37.0611 20.5474C36.984 21.2694 37.0063 22.0377 37.1697 22.7402C37.3151 23.177 37.5454 23.5322 37.8723 23.7954C38.5177 24.3154 39.4045 24.5754 40.5333 24.5754C42.5545 24.5754 44.3713 23.7665 45.9857 22.1567C46.0851 22.8751 46.3623 23.4235 46.8234 23.7954C47.4687 24.3154 48.344 24.5754 49.4495 24.5754C51.0045 24.5754 53.295 23.9485 53.8573 22.3359C53.8982 22.2192 53.9335 22.1007 53.965 21.9812C53.9961 21.8622 53.9502 21.7478 53.8132 21.7422C53.6832 21.7366 53.5643 21.8926 53.4654 21.9658C53.2054 22.1576 52.9166 22.3094 52.6124 22.4172C51.89 22.6739 50.1409 22.8433 49.691 22.0321C49.496 21.6797 49.4607 21.2503 49.4811 20.855C49.4992 20.511 49.5582 20.1212 49.658 19.6876C50.0141 18.1992 50.5741 16.9423 51.3388 15.9154C51.8802 15.171 52.3863 14.7994 52.8581 14.7994C53.3266 14.7994 53.4761 15.2382 53.4617 15.6405C53.4464 16.0839 53.0146 16.5418 53.327 16.9619C53.679 17.4356 54.4548 17.122 54.811 16.8144C55.0822 16.5801 55.2321 16.1838 55.2614 15.6261C55.2906 15.0678 55.1174 14.6044 54.7427 14.2361Z" fill="#FF3EA6"/>
</g>
</svg>
