<svg width="14" height="10" viewBox="0 0 14 10" fill="none" xmlns="http://www.w3.org/2000/svg">
<path fill-rule="evenodd" clip-rule="evenodd" d="M6.9995 9.82039H6.99576C6.57332 9.8176 2.83876 9.78458 1.78068 9.50739C1.04123 9.31486 0.457504 8.75008 0.25819 8.03362C-0.0186655 7.02683 -0.00104132 5.08841 0.000881047 4.93363C-0.000934482 4.77957 -0.0187723 2.82512 0.257336 1.81002L0.25819 1.80712C0.45526 1.09891 1.05212 0.516604 1.77887 0.323538L1.78442 0.32209C2.83054 0.0557708 6.57247 0.0231793 6.99576 0.0203857H7.00335C7.42682 0.0231793 11.1713 0.0561846 12.2197 0.333781C12.9573 0.525813 13.5405 1.08991 13.7404 1.80537C14.0276 2.82118 14.001 4.77988 13.9981 4.94522C14.0002 5.10807 14.0169 7.0291 13.7417 8.04101L13.7409 8.04387C13.5415 8.76025 12.9579 9.32511 12.2176 9.51787L12.2146 9.5187C11.1686 9.78488 7.42651 9.81752 7.00335 9.82039H6.9995ZM1.31459 2.08168C1.07264 2.97344 1.09425 4.88892 1.09466 4.92625L1.09467 4.94063C1.08741 5.47574 1.11293 7.02545 1.3147 7.75945C1.41254 8.11089 1.7004 8.38936 2.06548 8.48442C2.84616 8.68894 5.88784 8.75332 6.99954 8.76086C8.11414 8.75332 11.1603 8.69075 11.9352 8.49437C12.2991 8.39893 12.586 8.12144 12.6845 7.76955C12.8865 7.02482 12.9118 5.48268 12.9044 4.95097L12.9045 4.93421C12.9145 4.39267 12.8948 2.82487 12.6855 2.08499L12.6849 2.08282C12.5866 1.72979 12.2987 1.45137 11.9336 1.35628C11.1605 1.15153 8.11391 1.08738 6.99954 1.07983C5.88571 1.08738 2.84253 1.14987 2.06526 1.34605C1.70713 1.44227 1.41276 1.73062 1.31459 2.08168ZM5.60535 2.77497V7.06576L9.43351 4.92042L5.60535 2.77497Z" fill="white"/>
</svg>
